<mxfile host="65bd71144e">
    <diagram id="tveGska3FGRoD25cLZWm" name="Page-1">
        <mxGraphModel dx="595" dy="513" grid="1" gridSize="10" guides="1" tooltips="1" connect="1" arrows="0" fold="1" page="1" pageScale="1" pageWidth="827" pageHeight="1169" math="0" shadow="0">
            <root>
                <mxCell id="0"/>
                <mxCell id="1" parent="0"/>
                <mxCell id="7" value="" style="shape=image;verticalLabelPosition=bottom;labelBackgroundColor=default;verticalAlign=top;aspect=fixed;imageAspect=0;image=https://o.remove.bg/downloads/4859cc55-7170-453f-99e2-824914375b94/image-removebg-preview.png;" vertex="1" parent="1">
                    <mxGeometry x="153.00197618272557" y="310.0040957302517" width="520" height="340" as="geometry"/>
                </mxCell>
                <mxCell id="8" value="Text" style="text;strokeColor=none;align=center;fillColor=none;html=1;verticalAlign=middle;whiteSpace=wrap;rounded=0;" vertex="1" parent="1">
                    <mxGeometry x="400" y="410" width="60" height="30" as="geometry"/>
                </mxCell>
                <mxCell id="9" value="By: Mars Laurio&lt;br&gt;On: Oct 2023&lt;br&gt;Servo Ultrasonic Sensor" style="text;strokeColor=none;align=left;fillColor=none;html=1;verticalAlign=middle;whiteSpace=wrap;rounded=0;labelBorderColor=default;labelBackgroundColor=default;" vertex="1" parent="1">
                    <mxGeometry x="170" y="250" width="206" height="30" as="geometry"/>
                </mxCell>
            </root>
        </mxGraphModel>
    </diagram>
</mxfile>